<svg xmlns="http://www.w3.org/2000/svg" viewBox="0 0 256 256" width="256" height="256">
  <defs>
    <radialGradient id="dcore" cx="50%" cy="50%" r="50%">
      <stop offset="0" stop-color="#C8551A" stop-opacity="0.34"></stop><stop offset="0.4" stop-color="#E07B2E" stop-opacity="0.18"></stop><stop offset="1" stop-color="#E07B2E" stop-opacity="0"></stop>
    </radialGradient>
    <radialGradient id="dneb" cx="50%" cy="50%" r="50%">
      <stop offset="0" stop-color="#E07B2E" stop-opacity="0.24"></stop><stop offset="0.45" stop-color="#E07B2E" stop-opacity="0.12"></stop><stop offset="0.78" stop-color="#2F5FA6" stop-opacity="0.12"></stop><stop offset="1" stop-color="#2F5FA6" stop-opacity="0"></stop>
    </radialGradient>
    <linearGradient id="dorb" x1="0" y1="0" x2="1" y2="0"><stop offset="0" stop-color="#3E79C2"></stop><stop offset="0.5" stop-color="#E07B2E"></stop><stop offset="1" stop-color="#2F5FA6"></stop></linearGradient>
    <filter id="dhaze" x="-80%" y="-80%" width="260%" height="260%"><feGaussianBlur stdDeviation="9"></feGaussianBlur></filter>
    <filter id="dsh" x="-60%" y="-60%" width="220%" height="220%"><feGaussianBlur stdDeviation="2.5"></feGaussianBlur></filter>
  </defs>
    <g transform="rotate(-16 128 128)"><ellipse cx="128" cy="128" rx="92" ry="60" fill="url(#dneb)"></ellipse></g>
    <circle cx="158.3" cy="99.5" r="18.5" fill="#626784" opacity="0.113" filter="url(#dhaze)"></circle>
    <circle cx="146.8" cy="153.3" r="18.7" fill="#56658c" opacity="0.105" filter="url(#dhaze)"></circle>
    <circle cx="90.2" cy="126.3" r="20.4" fill="#6b697d" opacity="0.119" filter="url(#dhaze)"></circle>
    <circle cx="141.1" cy="118.1" r="25.4" fill="#b5744b" opacity="0.170" filter="url(#dhaze)"></circle>
    <path d="M 33.80 155.01 A 98 30 -16 0 1 222.20 100.99" fill="none" stroke="#2F5FA6" stroke-width="3.5" opacity="0.4"></path>
    <circle cx="128" cy="128" r="60" fill="url(#dcore)"></circle>
    <circle cx="121.7" cy="135.6" r="30.5" fill="#ca783d" opacity="0.185" filter="url(#dhaze)"></circle>
    <circle cx="115.1" cy="138.3" r="29.4" fill="#b87549" opacity="0.172" filter="url(#dhaze)"></circle>
    <circle cx="100.8" cy="150.9" r="24.3" fill="#7f6c70" opacity="0.133" filter="url(#dhaze)"></circle>
    <circle cx="113.2" cy="169.4" r="0.71" fill="#39619f" opacity="0.50"></circle>
    <circle cx="129.7" cy="169.3" r="0.76" fill="#446298" opacity="0.51"></circle>
    <circle cx="154.5" cy="81.7" r="0.74" fill="#3b619e" opacity="0.51"></circle>
    <circle cx="71.9" cy="162.0" r="0.77" fill="#39619f" opacity="0.54"></circle>
    <circle cx="180.1" cy="131.9" r="1.02" fill="#6c697d" opacity="0.56"></circle>
    <circle cx="60.4" cy="121.9" r="0.83" fill="#426299" opacity="0.55"></circle>
    <circle cx="145.4" cy="169.3" r="1.26" fill="#98705f" opacity="0.59"></circle>
    <circle cx="153.4" cy="116.8" r="1.50" fill="#c8773e" opacity="0.60"></circle>
    <circle cx="118.2" cy="148.1" r="1.57" fill="#d57935" opacity="0.61"></circle>
    <circle cx="124.5" cy="180.8" r="1.17" fill="#836c6d" opacity="0.58"></circle>
    <circle cx="138.3" cy="108.7" r="1.62" fill="#dd7b30" opacity="0.61"></circle>
    <circle cx="130.5" cy="160.5" r="1.50" fill="#c57741" opacity="0.61"></circle>
    <circle cx="188.1" cy="114.9" r="1.14" fill="#766a76" opacity="0.60"></circle>
    <circle cx="133.2" cy="132.1" r="1.95" fill="#d97028" opacity="0.64"></circle>
    <circle cx="164.0" cy="152.7" r="1.49" fill="#b97549" opacity="0.62"></circle>
    <circle cx="106.0" cy="60.1" r="0.97" fill="#54658d" opacity="0.59"></circle>
    <circle cx="81.3" cy="87.6" r="1.17" fill="#7a6b73" opacity="0.60"></circle>
    <circle cx="135.6" cy="128.6" r="2.02" fill="#d86e27" opacity="0.65"></circle>
    <circle cx="108.2" cy="125.7" r="1.92" fill="#da7229" opacity="0.65"></circle>
    <circle cx="118.1" cy="79.8" r="1.44" fill="#ac7352" opacity="0.62"></circle>
    <circle cx="91.3" cy="173.9" r="1.27" fill="#8a6d68" opacity="0.62"></circle>
    <circle cx="112.8" cy="157.2" r="1.77" fill="#df792d" opacity="0.65"></circle>
    <circle cx="123.3" cy="129.6" r="2.19" fill="#d46824" opacity="0.67"></circle>
    <circle cx="130.8" cy="167.0" r="1.70" fill="#da7a32" opacity="0.65"></circle>
    <circle cx="80.7" cy="110.8" r="1.51" fill="#b3744d" opacity="0.64"></circle>
    <circle cx="129.7" cy="158.5" r="1.90" fill="#dc752b" opacity="0.66"></circle>
    <circle cx="93.5" cy="161.5" r="1.59" fill="#bf7644" opacity="0.65"></circle>
    <circle cx="106.5" cy="71.6" r="1.33" fill="#8f6e65" opacity="0.63"></circle>
    <circle cx="73.4" cy="151.7" r="1.35" fill="#926f63" opacity="0.63"></circle>
    <circle cx="120.0" cy="121.1" r="2.28" fill="#d36623" opacity="0.69"></circle>
    <circle cx="140.3" cy="133.5" r="2.25" fill="#d46824" opacity="0.69"></circle>
    <circle cx="121.6" cy="130.2" r="2.34" fill="#d26422" opacity="0.69"></circle>
    <circle cx="117.3" cy="128.5" r="2.32" fill="#d26523" opacity="0.69"></circle>
    <circle cx="121.5" cy="120.8" r="2.33" fill="#d26522" opacity="0.69"></circle>
    <circle cx="107.1" cy="103.2" r="1.96" fill="#dc742a" opacity="0.67"></circle>
    <circle cx="81.9" cy="124.0" r="1.67" fill="#cb783c" opacity="0.66"></circle>
    <circle cx="78.7" cy="127.5" r="1.61" fill="#bf7644" opacity="0.66"></circle>
    <circle cx="110.4" cy="117.3" r="2.22" fill="#d56a25" opacity="0.69"></circle>
    <circle cx="104.4" cy="142.8" r="2.07" fill="#d97028" opacity="0.68"></circle>
    <circle cx="127.7" cy="161.9" r="1.95" fill="#dc752b" opacity="0.68"></circle>
    <circle cx="126.5" cy="120.7" r="2.46" fill="#d06120" opacity="0.71"></circle>
    <circle cx="130.6" cy="126.2" r="2.50" fill="#cf5f1f" opacity="0.71"></circle>
    <circle cx="123.3" cy="131.6" r="2.57" fill="#ce5e1f" opacity="0.72"></circle>
    <circle cx="115.6" cy="137.3" r="2.40" fill="#d26422" opacity="0.71"></circle>
    <circle cx="116.1" cy="131.2" r="2.47" fill="#d06221" opacity="0.71"></circle>
    <circle cx="83.0" cy="138.6" r="1.74" fill="#d07839" opacity="0.67"></circle>
    <circle cx="115.9" cy="134.3" r="2.45" fill="#d16321" opacity="0.71"></circle>
    <circle cx="118.7" cy="144.2" r="2.35" fill="#d36723" opacity="0.71"></circle>
    <circle cx="102.7" cy="104.2" r="2.00" fill="#dc742a" opacity="0.69"></circle>
    <circle cx="118.2" cy="126.8" r="2.56" fill="#ce5f1f" opacity="0.72"></circle>
    <circle cx="133.4" cy="118.6" r="2.54" fill="#cf6020" opacity="0.72"></circle>
    <circle cx="185.2" cy="114.1" r="1.47" fill="#9e715b" opacity="0.66"></circle>
    <circle cx="135.4" cy="126.5" r="2.62" fill="#cd5d1e" opacity="0.73"></circle>
    <circle cx="194.6" cy="107.3" r="1.23" fill="#716a79" opacity="0.65"></circle>
    <circle cx="136.2" cy="149.0" r="2.30" fill="#d56925" opacity="0.71"></circle>
    <circle cx="131.5" cy="131.5" r="2.68" fill="#cc5b1d" opacity="0.73"></circle>
    <circle cx="126.1" cy="117.2" r="2.57" fill="#cf5f1f" opacity="0.73"></circle>
    <circle cx="89.6" cy="72.7" r="1.28" fill="#7b6b72" opacity="0.65"></circle>
    <circle cx="128.4" cy="130.9" r="2.73" fill="#cb591c" opacity="0.74"></circle>
    <circle cx="115.3" cy="136.2" r="2.48" fill="#d16321" opacity="0.72"></circle>
    <circle cx="116.0" cy="124.5" r="2.54" fill="#cf6020" opacity="0.73"></circle>
    <circle cx="127.7" cy="127.7" r="2.76" fill="#ca581c" opacity="0.74"></circle>
    <circle cx="98.1" cy="177.5" r="1.51" fill="#a37158" opacity="0.67"></circle>
    <circle cx="127.2" cy="127.1" r="2.78" fill="#ca581b" opacity="0.74"></circle>
    <circle cx="128.5" cy="127.3" r="2.80" fill="#c9571b" opacity="0.74"></circle>
    <circle cx="127.1" cy="133.0" r="2.73" fill="#cb5a1c" opacity="0.74"></circle>
    <circle cx="121.6" cy="121.8" r="2.65" fill="#cd5d1e" opacity="0.73"></circle>
    <circle cx="129.2" cy="129.4" r="2.80" fill="#c9571b" opacity="0.74"></circle>
    <circle cx="128.0" cy="128.6" r="2.83" fill="#c9561b" opacity="0.75"></circle>
    <circle cx="136.5" cy="135.1" r="2.60" fill="#ce5f1f" opacity="0.73"></circle>
    <circle cx="132.0" cy="126.4" r="2.76" fill="#ca591c" opacity="0.74"></circle>
    <circle cx="128.1" cy="128.5" r="2.84" fill="#c8561a" opacity="0.75"></circle>
    <circle cx="124.3" cy="122.8" r="2.72" fill="#cc5b1d" opacity="0.74"></circle>
    <circle cx="127.9" cy="128.7" r="2.84" fill="#c9561a" opacity="0.75"></circle>
    <circle cx="128.7" cy="129.4" r="2.83" fill="#c9561b" opacity="0.75"></circle>
    <circle cx="128.1" cy="129.2" r="2.84" fill="#c9561b" opacity="0.75"></circle>
    <circle cx="128.5" cy="128.3" r="2.85" fill="#c8561a" opacity="0.75"></circle>
    <circle cx="127.6" cy="126.0" r="2.82" fill="#c9571b" opacity="0.75"></circle>
    <circle cx="112.4" cy="126.3" r="2.50" fill="#d16321" opacity="0.73"></circle>
    <circle cx="128.0" cy="127.7" r="2.86" fill="#c8551a" opacity="0.75"></circle>
    <circle cx="127.6" cy="127.9" r="2.86" fill="#c8551a" opacity="0.75"></circle>
    <circle cx="128.0" cy="127.7" r="2.86" fill="#c8551a" opacity="0.75"></circle>
    <circle cx="127.3" cy="128.3" r="2.85" fill="#c8561a" opacity="0.75"></circle>
    <circle cx="127.8" cy="128.0" r="2.87" fill="#c8551a" opacity="0.75"></circle>
    <circle cx="128.0" cy="128.0" r="2.87" fill="#c8551a" opacity="0.75"></circle>
    <circle cx="128.7" cy="127.4" r="2.85" fill="#c9561a" opacity="0.75"></circle>
    <circle cx="122.9" cy="126.2" r="2.75" fill="#cb5a1d" opacity="0.74"></circle>
    <circle cx="129.3" cy="127.5" r="2.84" fill="#c9561b" opacity="0.75"></circle>
    <circle cx="128.3" cy="128.2" r="2.86" fill="#c8551a" opacity="0.75"></circle>
    <circle cx="172.8" cy="92.8" r="1.55" fill="#a77255" opacity="0.68"></circle>
    <circle cx="125.2" cy="127.8" r="2.81" fill="#ca571b" opacity="0.75"></circle>
    <circle cx="128.8" cy="128.1" r="2.85" fill="#c9561a" opacity="0.75"></circle>
    <circle cx="161.7" cy="74.3" r="1.40" fill="#8c6e67" opacity="0.67"></circle>
    <circle cx="130.4" cy="129.1" r="2.81" fill="#ca571b" opacity="0.75"></circle>
    <circle cx="130.2" cy="115.7" r="2.59" fill="#cf6020" opacity="0.74"></circle>
    <circle cx="125.5" cy="131.0" r="2.79" fill="#ca591c" opacity="0.75"></circle>
    <circle cx="194.6" cy="125.0" r="1.32" fill="#7f6c70" opacity="0.67"></circle>
    <circle cx="110.0" cy="180.1" r="1.59" fill="#ae7350" opacity="0.68"></circle>
    <circle cx="117.5" cy="122.6" r="2.61" fill="#cf5f20" opacity="0.74"></circle>
    <circle cx="131.8" cy="126.6" r="2.78" fill="#ca591c" opacity="0.75"></circle>
    <circle cx="126.0" cy="130.0" r="2.81" fill="#ca581b" opacity="0.75"></circle>
    <circle cx="118.2" cy="128.1" r="2.65" fill="#ce5e1f" opacity="0.74"></circle>
    <circle cx="129.3" cy="129.4" r="2.82" fill="#ca581b" opacity="0.75"></circle>
    <circle cx="147.9" cy="127.4" r="2.43" fill="#d36723" opacity="0.73"></circle>
    <circle cx="125.7" cy="130.5" r="2.79" fill="#cb591c" opacity="0.75"></circle>
    <circle cx="139.1" cy="132.8" r="2.61" fill="#cf6020" opacity="0.74"></circle>
    <circle cx="122.6" cy="126.3" r="2.75" fill="#cc5b1d" opacity="0.75"></circle>
    <circle cx="126.9" cy="122.7" r="2.75" fill="#cc5b1d" opacity="0.75"></circle>
    <circle cx="113.3" cy="105.2" r="2.26" fill="#d76d27" opacity="0.72"></circle>
    <circle cx="124.9" cy="129.9" r="2.78" fill="#cb5a1d" opacity="0.75"></circle>
    <circle cx="120.2" cy="122.7" r="2.67" fill="#ce5e1f" opacity="0.75"></circle>
    <circle cx="131.6" cy="131.5" r="2.75" fill="#cc5b1d" opacity="0.75"></circle>
    <circle cx="127.5" cy="122.4" r="2.74" fill="#cc5c1e" opacity="0.75"></circle>
    <circle cx="137.2" cy="125.9" r="2.66" fill="#ce5f1f" opacity="0.75"></circle>
    <circle cx="127.0" cy="143.4" r="2.53" fill="#d26422" opacity="0.74"></circle>
    <circle cx="127.0" cy="150.0" r="2.39" fill="#d56a25" opacity="0.74"></circle>
    <circle cx="110.9" cy="125.7" r="2.49" fill="#d36623" opacity="0.74"></circle>
    <circle cx="137.7" cy="134.4" r="2.61" fill="#d06221" opacity="0.75"></circle>
    <circle cx="130.2" cy="132.1" r="2.70" fill="#ce5f1f" opacity="0.76"></circle>
    <circle cx="131.5" cy="120.7" r="2.66" fill="#cf6120" opacity="0.76"></circle>
    <circle cx="122.6" cy="110.5" r="2.46" fill="#d46824" opacity="0.75"></circle>
    <circle cx="126.6" cy="131.8" r="2.70" fill="#ce5f1f" opacity="0.76"></circle>
    <circle cx="125.7" cy="125.9" r="2.70" fill="#cf5f1f" opacity="0.76"></circle>
    <circle cx="103.6" cy="117.0" r="2.27" fill="#d96f28" opacity="0.74"></circle>
    <circle cx="138.5" cy="136.5" r="2.52" fill="#d36723" opacity="0.76"></circle>
    <circle cx="80.2" cy="136.4" r="1.77" fill="#bf7644" opacity="0.72"></circle>
    <circle cx="75.4" cy="172.3" r="1.29" fill="#6c697d" opacity="0.69"></circle>
    <circle cx="205.7" cy="112.1" r="1.04" fill="#426299" opacity="0.68"></circle>
    <circle cx="110.0" cy="101.6" r="2.12" fill="#dd772c" opacity="0.75"></circle>
    <circle cx="110.1" cy="197.1" r="1.21" fill="#5d6687" opacity="0.70"></circle>
    <circle cx="86.5" cy="96.1" r="1.66" fill="#a67255" opacity="0.72"></circle>
    <circle cx="162.9" cy="128.5" r="2.01" fill="#db7a31" opacity="0.75"></circle>
    <circle cx="160.1" cy="125.0" r="2.06" fill="#e07a2e" opacity="0.75"></circle>
    <circle cx="106.6" cy="144.2" r="2.16" fill="#dd772c" opacity="0.76"></circle>
    <circle cx="160.5" cy="156.0" r="1.84" fill="#bf7644" opacity="0.74"></circle>
    <circle cx="70.4" cy="78.5" r="1.08" fill="#446298" opacity="0.70"></circle>
    <circle cx="131.9" cy="103.7" r="2.17" fill="#dd772c" opacity="0.76"></circle>
    <circle cx="167.6" cy="125.3" r="1.88" fill="#c27642" opacity="0.75"></circle>
    <circle cx="140.1" cy="121.9" r="2.27" fill="#dc742a" opacity="0.77"></circle>
    <circle cx="143.0" cy="142.6" r="2.14" fill="#df792d" opacity="0.77"></circle>
    <circle cx="79.5" cy="131.4" r="1.64" fill="#99705e" opacity="0.75"></circle>
    <circle cx="81.2" cy="104.2" r="1.53" fill="#846d6c" opacity="0.74"></circle>
    <circle cx="136.8" cy="140.7" r="2.11" fill="#de7b2f" opacity="0.78"></circle>
    <circle cx="77.3" cy="152.5" r="1.36" fill="#666880" opacity="0.75"></circle>
    <circle cx="162.4" cy="171.4" r="1.34" fill="#616784" opacity="0.75"></circle>
    <circle cx="144.4" cy="120.4" r="1.82" fill="#a57256" opacity="0.79"></circle>
    <circle cx="146.5" cy="145.9" r="1.72" fill="#966f60" opacity="0.79"></circle>
    <circle cx="118.7" cy="128.8" r="1.79" fill="#9e715b" opacity="0.79"></circle>
    <circle cx="134.9" cy="137.9" r="1.72" fill="#916f63" opacity="0.80"></circle>
    <circle cx="116.3" cy="127.6" r="1.71" fill="#906e64" opacity="0.80"></circle>
    <path d="M 33.80 155.01 A 98 30 -16 0 0 222.20 100.99" fill="none" stroke="#B9BFCC" stroke-width="6" opacity="0.5" filter="url(#dsh)" transform="translate(0,3)"></path>
    <path d="M 33.80 155.01 A 98 30 -16 0 0 222.20 100.99" fill="none" stroke="url(#dorb)" stroke-width="3.6" stroke-linecap="round"></path>
</svg>
